<svg xmlns="http://www.w3.org/2000/svg" width="1440" height="700"><g transform="translate(-60 -60)"><defs><marker id="closed-circle-at-center" viewBox="0 0 10 10" refX="5" refY="5" markerUnits="userSpaceOnUse" markerWidth="8" markerHeight="8" orient="auto-start-reverse"><circle cx="5" cy="5" r="5" fill="context-fill" stroke="context-stroke"/></marker><marker id="closed-circle-at-border" viewBox="0 0 10 10" refX="10" refY="5" markerUnits="userSpaceOnUse" markerWidth="8" markerHeight="8" orient="auto-start-reverse"><circle cx="5" cy="5" r="5" fill="context-fill" stroke="context-stroke"/></marker><marker id="closed-arrow" viewBox="0 0 10 10" refX="10" refY="5" markerUnits="userSpaceOnUse" markerWidth="8" markerHeight="8" orient="auto-start-reverse"><path d="M 0 0 L 10 5 L 0 10 z" fill="context-fill" stroke="context-stroke"/></marker><marker id="open-arrow" viewBox="0 0 10 10" refX="10" refY="5" markerUnits="userSpaceOnUse" markerWidth="8" markerHeight="8" orient="auto-start-reverse"><path d="M 0,0 L 10,5 M 10,5 L 0,10" stroke="black"/></marker></defs><g id="flow-1" bpmn2nodeid="flow-1"><path marker-end="url(#closed-arrow)" d="M 220,390 L 340,190" style="stroke-width: 1; stroke: black;"/></g><g id="flow-2" bpmn2nodeid="flow-2"><path marker-end="url(#closed-arrow)" d="M 460,190 L 520,390" style="stroke-width: 1; stroke: black;"/></g><g id="flow-3" bpmn2nodeid="flow-3"><path marker-end="url(#closed-arrow)" d="M 640,390 L 700,400" style="stroke-width: 1; stroke: black;"/></g><g id="flow-4" bpmn2nodeid="flow-4"><path marker-end="url(#closed-arrow)" d="M 800,400 L 880,590" style="stroke-width: 1; stroke: black;"/></g><g id="flow-5" bpmn2nodeid="flow-5"><path marker-end="url(#closed-arrow)" d="M 800,400 L 880,190" style="stroke-width: 1; stroke: black;"/></g><g id="flow-6" bpmn2nodeid="flow-6"><path marker-end="url(#closed-arrow)" d="M 1000,190 L 880,590" style="stroke-width: 1; stroke: black;"/></g><g id="flow-7" bpmn2nodeid="flow-7"><path marker-end="url(#closed-arrow)" d="M 1000,590 L 1060,580" style="stroke-width: 1; stroke: black;"/></g><g id="flow-8" bpmn2nodeid="flow-8"><path marker-end="url(#closed-arrow)" d="M 1160,580 L 1240,350" style="stroke-width: 1; stroke: black;"/></g><g id="flow-9" bpmn2nodeid="flow-9"><path marker-end="url(#closed-arrow)" d="M 1160,580 L 1240,450" style="stroke-width: 1; stroke: black;"/></g><g id="flow-10" bpmn2nodeid="flow-10"><path marker-end="url(#closed-arrow)" d="M 1360,350 L 1420,350" style="stroke-width: 1; stroke: black;"/></g><g id="flow-11" bpmn2nodeid="flow-11"><path marker-end="url(#closed-arrow)" d="M 1360,450 L 1420,450" style="stroke-width: 1; stroke: black;"/></g><g id="lane-role-policyholder" data-kie-bpmn-node-id="lane-role-policyholder" bpmn2nodeid="lane-role-policyholder"><g><rect x="80.75" y="80.75" width="1398.5" height="198.6" stroke-width="1.5" fill="transparent" stroke="rgba(0, 0, 0, 1)" stroke-linejoin="round" rx="3" ry="3" class="xyflow-react-kie-diagram--node-containerNode-visibleRect"/><line x1="120.75" y1="80.75" x2="120.75" y2="279.35" stroke="rgba(0, 0, 0, 1)" stroke-width="1.5"/><rect x="90" y="90" width="1380" height="180.1" stroke-width="20" fill="transparent" stroke="transparent" stroke-linejoin="round" rx="0" ry="0" class="xyflow-react-kie-diagram--node-containerNode-interactionRect"/></g><svg x="0" y="calc(1.5em * 0)" style="overflow: visible;"><text transform="translate(98,98)" text-anchor="start" style="font-family: arial; font-size: 16px; line-height: 1.5em;"><tspan x="0" dy="0.71em">Policyholder</tspan></text></svg></g><g id="lane-role-system" data-kie-bpmn-node-id="lane-role-system" bpmn2nodeid="lane-role-system"><g><rect x="80.75" y="280.75" width="1398.5" height="198.6" stroke-width="1.5" fill="transparent" stroke="rgba(0, 0, 0, 1)" stroke-linejoin="round" rx="3" ry="3" class="xyflow-react-kie-diagram--node-containerNode-visibleRect"/><line x1="120.75" y1="280.75" x2="120.75" y2="479.35" stroke="rgba(0, 0, 0, 1)" stroke-width="1.5"/><rect x="90" y="290" width="1380" height="180.1" stroke-width="20" fill="transparent" stroke="transparent" stroke-linejoin="round" rx="0" ry="0" class="xyflow-react-kie-diagram--node-containerNode-interactionRect"/></g><svg x="0" y="calc(1.5em * 0)" style="overflow: visible;"><text transform="translate(98,298)" text-anchor="start" style="font-family: arial; font-size: 16px; line-height: 1.5em;"><tspan x="0" dy="0.71em">Claims System</tspan></text></svg></g><g id="lane-role-adjuster" data-kie-bpmn-node-id="lane-role-adjuster" bpmn2nodeid="lane-role-adjuster"><g><rect x="80.75" y="480.75" width="1398.5" height="198.6" stroke-width="1.5" fill="transparent" stroke="rgba(0, 0, 0, 1)" stroke-linejoin="round" rx="3" ry="3" class="xyflow-react-kie-diagram--node-containerNode-visibleRect"/><line x1="120.75" y1="480.75" x2="120.75" y2="679.35" stroke="rgba(0, 0, 0, 1)" stroke-width="1.5"/><rect x="90" y="490" width="1380" height="180.1" stroke-width="20" fill="transparent" stroke="transparent" stroke-linejoin="round" rx="0" ry="0" class="xyflow-react-kie-diagram--node-containerNode-interactionRect"/></g><svg x="0" y="calc(1.5em * 0)" style="overflow: visible;"><text transform="translate(98,498)" text-anchor="start" style="font-family: arial; font-size: 16px; line-height: 1.5em;"><tspan x="0" dy="0.71em">Claims Adjuster</tspan></text></svg></g><g id="elem-start-1" data-kie-bpmn-node-id="elem-start-1" bpmn2nodeid="elem-start-1"><g><circle id="elem-start-1?shapeType=BACKGROUND" cx="190" cy="390.05" stroke-width="1.5" width="58.5" height="58.6" fill="#e8fae6" stroke="#4aa241" stroke-linejoin="round" r="29.25"/></g><circle id="elem-start-1?shapeType=BORDER&amp;renderType=STROKE" cx="190" cy="390.05" stroke-width="1.5" width="58.5" height="58.6" fill="transparent" stroke="#4aa241" stroke-linejoin="round" r="29.25"/><svg x="0" y="calc(1.5em * 0)" style="overflow: visible;"><text transform="translate(190,424)" text-anchor="middle" style="font-family: arial; font-size: 16px; line-height: 1.5em;"><tspan x="0" dy="0.71em">Claim</tspan><tspan x="0" dy="1.5em">Initiated</tspan></text></svg></g><g id="elem-task-1" data-kie-bpmn-node-id="elem-task-1" bpmn2nodeid="elem-task-1"><g><rect id="elem-task-1?shapeType=BACKGROUND" x="340.75" y="140.75" stroke-width="1.5" width="118.5" height="98.6" fill="rgba(255, 255, 255, 0.9)" stroke="rgba(0, 0, 0, 1)" stroke-linejoin="round" rx="3" ry="3"/></g><rect id="elem-task-1?shapeType=BORDER&amp;renderType=STROKE" x="340.75" y="140.75" stroke-width="0" width="118.5" height="98.6" fill="transparent" stroke="rgba(0, 0, 0, 1)" stroke-linejoin="round" rx="3" ry="3"/><g transform="translate(343.75, 143.75)"><svg version="1.0" xmlns="http://www.w3.org/2000/svg" width="25" height="25.650557620817843" viewBox="0 0 269 276" preserveAspectRatio="xMidYMid meet"><g transform="translate(0, 276) scale(0.1, -0.1)" stroke="black" stroke-width="25"><path d="M1310 2724 c-160 -26 -279 -82 -372 -176 -76 -77 -118 -153 -142&#10;        -255 -44 -196 6 -453 121 -614 18 -26 33 -51 33 -56 0 -24 -44 -45 -116 -58&#10;        -319 -57 -613 -271 -777 -566 l-37 -66 2 -414 3 -414 23 -3 c16 -3 22 -10 22&#10;        -28 l0 -24 1258 0 1257 0 18 43 c15 38 17 84 17 437 l0 394 -32 85 c-62 165&#10;        -212 341 -374 438 -82 49 -222 101 -324 118 -84 15 -130 34 -130 55 0 4 21 42&#10;        48 86 72 120 101 217 128 430 8 58 -22 197 -57 270 -55 112 -149 207 -250 252&#10;        -114 50 -247 78 -319 66z m416 -614 c75 -7 134 -16 141 -23 10 -10 10 -27 -1&#10;        -82 -7 -39 -17 -79 -21 -90 -26 -71 -72 -149 -120 -204 -62 -70 -62 -63 2&#10;        -132 l33 -35 -2 -175 -3 -174 -400 0 -400 0 -3 173 -2 173 40 46 c22 25 40 52&#10;        40 60 0 7 -17 32 -39 56 -43 47 -101 136 -119 182 -21 54 -44 177 -36 185 5 5&#10;        27 2 49 -6 60 -22 273 -11 335 18 75 36 274 46 506 28z m194 -600 c275 -54&#10;        533 -270 626 -527 27 -74 30 -103 12 -104 -10 0 -10 -2 0 -6 9 -4 12 -86 12&#10;        -364 l0 -359 -229 0 -230 0 -1 220 c0 121 -3 227 -6 235 -7 17 -30 20 -39 5&#10;        -3 -6 -6 -97 -5 -203 0 -106 -3 -207 -6 -225 l-7 -32 -736 2 c-580 2 -736 6&#10;        -737 16 -1 6 -2 109 -3 227 -1 186 -3 216 -17 222 -8 3 -19 2 -24 -3 -5 -5&#10;        -10 -110 -12 -234 l-3 -225 -223 -3 -222 -2 0 387 0 388 39 67 c105 180 259&#10;        327 446 427 79 43 219 89 280 93 48 3 50 2 56 -27 4 -16 7 -98 8 -181 1 -129&#10;        3 -153 17 -158 20 -8 842 -8 872 0 22 6 22 8 22 188 0 101 3 186 6 189 4 4 16&#10;        5 28 2 12 -2 46 -9 76 -15z"/></g></svg></g><svg x="0" y="calc(1.5em * 0)" style="overflow: visible;"><text transform="translate(400,190)" text-anchor="middle" style="font-family: arial; font-size: 16px; line-height: 1.5em;"><tspan x="0" dy="0.355em">Submit Claim</tspan></text></svg></g><g id="elem-task-2" data-kie-bpmn-node-id="elem-task-2" bpmn2nodeid="elem-task-2"><g><rect id="elem-task-2?shapeType=BACKGROUND" x="520.75" y="340.75" stroke-width="1.5" width="118.5" height="98.6" fill="rgba(255, 255, 255, 0.9)" stroke="rgba(0, 0, 0, 1)" stroke-linejoin="round" rx="3" ry="3"/></g><rect id="elem-task-2?shapeType=BORDER&amp;renderType=STROKE" x="520.75" y="340.75" stroke-width="0" width="118.5" height="98.6" fill="transparent" stroke="rgba(0, 0, 0, 1)" stroke-linejoin="round" rx="3" ry="3"/><g transform="translate(523.75, 343.75)"><svg xmlns="http://www.w3.org/2000/svg" width="30" height="29.4375" viewBox="0 0 320 314" preserveAspectRatio="xMidYMid meet"><g transform="translate(0, 314) scale(0.1, -0.1)" stroke="black" stroke-width="25"><path d="M1170 3086 c-54 -21 -109 -56 -114 -74 -3 -9 -8 -74 -12 -145 l-7&#10;-127 -56 -16 c-31 -9 -89 -34 -130 -56 -71 -38 -74 -39 -95 -21 -11 10 -59 52&#10;-106 93 -142 125 -123 115 -177 100 -62 -18 -133 -64 -165 -109 -20 -28 -48&#10;-114 -48 -146 0 -2 19 -26 42 -53 209 -237 189 -208 170 -251 -8 -20 -27 -70&#10;-42 -111 l-27 -75 -149 -12 c-82 -6 -150 -12 -151 -12 -2 -1 -16 -25 -33 -53&#10;-27 -47 -30 -62 -30 -137 0 -74 3 -89 27 -127 16 -24 35 -46 43 -50 8 -3 73&#10;-10 145 -15 72 -6 135 -12 141 -14 6 -2 15 -25 19 -51 3 -26 18 -64 31 -85 13&#10;-21 24 -47 24 -56 -1 -10 -24 -43 -51 -73 -28 -30 -76 -83 -106 -117 l-55 -62&#10;12 -53 c21 -99 104 -180 202 -199 50 -9 55 -7 158 83 l73 62 16 -24 c42 -66&#10;52 -70 159 -70 55 0 113 -3 129 -6 l30 -6 10 -141 10 -142 -46 -54 c-96 -112&#10;-92 -105 -85 -161 12 -93 114 -193 209 -204 50 -6 51 -6 115 50 36 31 87 74&#10;114 95 l48 39 47 -27 c75 -44 102 -57 171 -78 l65 -21 6 -64 c4 -36 7 -97 8&#10;-136 0 -39 6 -77 14 -86 17 -21 83 -55 139 -72 41 -12 54 -12 99 1 29 9 71 27&#10;95 41 l42 26 6 85 c14 195 16 202 45 212 14 5 64 27 110 48 l83 39 96 -80 95&#10;-79 51 6 c27 4 67 19 88 32 46 31 102 113 118 176 l13 48 -44 47 c-24 25 -46&#10;49 -49 52 -3 3 -20 22 -39 42 l-33 36 39 74 c22 40 48 101 58 134 l17 62 46 6&#10;c24 3 87 6 138 6 80 0 97 3 113 19 26 26 49 71 66 129 13 40 12 53 -2 102 -8&#10;30 -27 72 -42 92 -28 40 -24 39 -219 54 -48 4 -88 12 -96 20 -8 7 -19 37 -26&#10;66 -7 29 -30 83 -51 120 -21 36 -39 74 -39 84 0 15 31 53 142 180 17 19 17 26&#10;6 70 -23 91 -94 174 -175 204 -30 11 -60 20 -68 20 -8 0 -45 -27 -82 -59 l-69&#10;-59 -134 10 c-74 6 -136 11 -138 13 -1 1 -7 62 -12 135 -6 74 -15 139 -20 145&#10;-5 6 -28 20 -50 31 -22 10 -40 21 -40 24 0 3 29 37 65 75 38 41 65 79 65 91 0&#10;58 -34 126 -87 174 -48 44 -126 80 -172 80 -6 0 -55 -40 -108 -90 -54 -49&#10;-103 -90 -110 -90 -6 0 -38 11 -70 24 -32 13 -72 29 -90 36 -34 13 -34 9 -49&#10;208 -6 79 -8 84 -40 108 -67 52 -160 67 -234 40z m137 -42 c17 -3 42 -16 57&#10;-27 25 -21 27 -30 37 -152 6 -71 15 -137 20 -147 5 -9 30 -24 56 -34 27 -9 78&#10;-30 116 -46 37 -16 73 -26 80 -22 6 4 56 48 109 97 88 80 100 88 126 82 75&#10;-16 156 -99 167 -171 6 -38 4 -41 -67 -110 -68 -67 -77 -72 -127 -78 -52 -5&#10;-148 -47 -163 -70 -4 -6 -8 -38 -8 -71 0 -33 -3 -97 -7 -142 l-6 -82 -52 -16&#10;c-69 -20 -82 -19 -90 5 -4 13 3 32 25 58 31 39 32 49 7 100 -11 23 -68 62 -91&#10;62 -7 0 -31 -16 -53 -35 -23 -19 -48 -35 -56 -35 -37 0 -47 12 -47 55 0 57 -7&#10;73 -41 90 -73 38 -138 2 -147 -83 -4 -46 -7 -52 -35 -61 -41 -15 -39 -16 -96&#10;29 -28 22 -58 40 -67 40 -29 0 -71 -39 -88 -81 -18 -45 -20 -40 37 -112 27&#10;-33 28 -39 17 -72 -11 -34 -13 -35 -62 -35 -70 0 -88 -18 -88 -87 0 -79 10&#10;-93 70 -93 37 0 55 -5 70 -20 27 -27 26 -35 -19 -91 -35 -44 -38 -53 -31 -81&#10;15 -52 38 -77 76 -84 30 -6 43 -2 80 25 74 52 96 39 68 -42 -10 -29 -23 -57&#10;-28 -63 -6 -7 -74 -17 -150 -23 -77 -7 -143 -14 -148 -17 -26 -17 -58 -95 -64&#10;-161 l-7 -72 -83 -70 c-70 -60 -89 -71 -120 -71 -66 0 -137 62 -163 142 -15&#10;46 -18 41 112 183 53 58 97 113 97 122 0 8 -13 38 -30 64 -16 27 -36 76 -43&#10;109 -8 34 -16 63 -19 65 -7 7 -178 25 -236 25 -47 0 -58 4 -83 31 -27 29 -29&#10;37 -29 109 0 79 18 133 48 145 7 2 76 8 153 11 80 4 143 12 148 18 5 6 17 38&#10;26 70 10 33 31 91 47 129 l30 70 -29 37 c-15 21 -68 83 -116 138 l-88 100 11&#10;44 c6 24 19 52 28 63 28 33 84 72 125 85 l38 12 95 -89 c173 -159 158 -154&#10;259 -93 33 20 89 44 125 55 98 28 96 25 105 186 l7 141 51 24 c52 24 98 29&#10;154 18z m709 -680 c16 -10 31 -19 33 -21 3 -2 10 -72 15 -156 l11 -152 45 -14&#10;c25 -8 78 -27 118 -43 41 -15 78 -28 83 -28 8 0 80 61 206 173 22 19 24 19 66&#10;3 57 -21 100 -65 132 -131 14 -30 25 -56 25 -59 0 -3 -38 -49 -85 -101 -47&#10;-53 -85 -103 -85 -111 0 -8 20 -50 44 -92 25 -42 54 -110 65 -151 12 -41 25&#10;-79 29 -83 5 -5 69 -14 143 -19 155 -12 172 -20 201 -94 19 -47 19 -53 4 -101&#10;-9 -29 -26 -63 -37 -78 -18 -23 -27 -26 -87 -27 -98 -1 -210 -13 -222 -25 -5&#10;-5 -20 -43 -32 -84 -12 -41 -39 -103 -60 -138 -21 -34 -38 -72 -38 -83 0 -11&#10;26 -48 57 -82 114 -123 105 -107 87 -160 -22 -65 -91 -133 -144 -142 -39 -7&#10;-43 -5 -136 74 -52 45 -102 81 -110 81 -8 0 -38 -12 -67 -27 -29 -15 -86 -41&#10;-127 -58 l-75 -30 -10 -143 c-9 -135 -11 -144 -35 -163 -59 -45 -144 -49 -224&#10;-8 -36 17 -46 28 -47 48 -1 14 -4 80 -8 146 l-6 120 -90 31 c-49 18 -122 50&#10;-162 73 -40 22 -79 41 -88 41 -8 0 -65 -43 -126 -96 -107 -92 -112 -96 -147&#10;-89 -67 13 -144 90 -157 157 -7 34 -3 40 105 163 61 70 109 132 107 139 -84&#10;217 -93 237 -112 241 -11 3 -81 9 -154 13 l-135 7 -20 34 c-26 44 -27 162 -3&#10;208 20 37 25 38 200 53 65 5 122 12 127 15 4 3 16 29 25 58 10 28 33 87 52&#10;131 l34 79 -43 51 c-23 28 -61 71 -84 96 -87 93 -106 122 -100 155 13 64 85&#10;139 158 165 l37 14 86 -80 c181 -165 186 -168 210 -145 27 24 132 73 187 87&#10;102 26 98 20 99 137 0 56 4 125 7 152 7 47 10 51 52 73 37 20 56 23 111 19 40&#10;-2 77 -11 95 -23z m-742 -50 c12 -5 16 -20 16 -60 0 -62 16 -78 86 -90 38 -6&#10;45 -3 82 30 36 33 43 36 62 24 36 -22 37 -55 1 -92 -35 -37 -37 -47 -15 -81&#10;19 -28 13 -40 -34 -67 l-29 -18 -122 111 -121 110 0 58 c0 73 22 95 74 75z&#10;m-254 -133 l35 -30 -40 -36 -40 -37 -32 38 c-38 43 -42 77 -11 98 24 17 33 13&#10;88 -33z m1308 -162 c-2 -6 -7 -10 -11 -10 -4 1 -14 1 -22 1 -8 0 -15 5 -15 10&#10;0 6 12 10 26 10 14 0 24 -5 22 -11z m-1408 -98 c0 -4 50 -65 111 -135 123&#10;-141 131 -163 59 -158 -35 2 -52 -3 -86 -28 -46 -33 -63 -37 -82 -18 -21 21&#10;-13 53 23 95 41 48 42 56 15 117 -19 45 -20 46 -64 46 -66 0 -76 6 -76 51 l0&#10;39 50 0 c28 0 50 -4 50 -9z m205 -1071 c7 -31 1 -50 -16 -50 -5 0 -9 18 -9 40&#10;0 47 16 53 25 10z"/><path d="M1846 1691 c-10 -11 -23 -43 -30 -72 -10 -46 -16 -56 -48 -73 l-37&#10;-19 -49 42 c-29 24 -60 41 -75 41 -34 0 -73 -34 -87 -76 -10 -29 -9 -39 4 -57&#10;65 -89 68 -96 59 -124 -8 -23 -16 -29 -44 -31 -87 -6 -95 -10 -108 -51 -13&#10;-45 -1 -118 21 -132 7 -5 32 -9 56 -9 42 0 82 -25 82 -51 0 -7 -18 -31 -40&#10;-55 -22 -24 -40 -52 -40 -61 0 -32 40 -84 76 -99 38 -16 41 -15 96 29 l37 29&#10;45 -17 c44 -17 45 -18 52 -71 7 -56 21 -76 67 -93 22 -9 35 -7 60 5 41 21 47&#10;31 47 77 0 52 13 73 52 81 26 5 39 1 70 -25 35 -28 42 -30 71 -20 77 27 99 90&#10;53 157 l-24 35 19 40 c19 38 21 39 69 39 38 0 54 5 69 22 33 34 37 81 11 122&#10;-21 35 -32 39 -108 48 -17 2 -29 15 -44 50 l-20 48 26 34 c35 47 35 94 -2 129&#10;-38 36 -79 35 -127 -3 -21 -16 -48 -30 -61 -30 -31 0 -54 36 -54 83 0 28 -6&#10;44 -22 58 -31 25 -99 25 -122 0z m98 -81 c9 -70 14 -79 51 -94 66 -28 70 -28&#10;119 10 84 64 131 20 66 -61 -16 -21 -30 -39 -30 -40 0 -1 16 -37 35 -79 l34&#10;-76 55 0 c46 0 57 -4 67 -21 8 -16 8 -28 0 -45 -9 -21 -17 -24 -66 -24 l-56 0&#10;-30 -66 c-31 -70 -31 -90 1 -119 29 -27 26 -69 -7 -84 -24 -11 -29 -9 -59 20&#10;-28 27 -37 31 -68 25 -20 -4 -51 -13 -71 -22 -28 -11 -35 -20 -35 -42 0 -15&#10;-3 -44 -6 -65 -6 -33 -10 -37 -35 -37 -34 0 -49 23 -49 77 0 49 -4 53 -70 81&#10;-30 13 -60 26 -66 28 -6 3 -33 -13 -61 -36 l-51 -40 -26 21 c-14 11 -26 25&#10;-26 31 0 6 18 30 40 54 46 50 48 67 19 124 -18 35 -26 40 -54 40 -72 0 -109&#10;35 -85 80 9 16 21 20 65 20 54 0 55 1 71 38 31 75 30 88 -15 145 -46 61 -47&#10;64 -24 89 23 26 36 23 88 -22 25 -22 53 -40 60 -40 26 0 123 49 129 66 3 8 6&#10;29 6 45 0 46 17 69 49 69 27 0 29 -3 35 -50z"/></g></svg></g><svg x="0" y="calc(1.5em * 0)" style="overflow: visible;"><text transform="translate(580,390)" text-anchor="middle" style="font-family: arial; font-size: 16px; line-height: 1.5em;"><tspan x="0" dy="-0.395em">Validate</tspan><tspan x="0" dy="1.5em">Claim Data</tspan></text></svg></g><g id="elem-gateway-1" data-kie-bpmn-node-id="elem-gateway-1" bpmn2nodeid="elem-gateway-1"><g><rect id="elem-gateway-1?shapeType=BACKGROUND" x="708.75" y="368.75" transform="rotate(45,750,400.05)" stroke-width="1.5" width="70.35714285714286" height="56.142857142857146" fill="#fef5ea" stroke="#ec7b08" stroke-linejoin="round" rx="5" ry="5"/></g><rect id="elem-gateway-1?shapeType=BORDER&amp;renderType=STROKE" x="708.75" y="368.75" transform="rotate(45,750,400.05)" stroke-width="1.5" width="70.35714285714286" height="56.142857142857146" fill="transparent" stroke="#ec7b08" stroke-linejoin="round" rx="5" ry="5"/><line x1="740" y1="390.05" x2="760" y2="410.05" stroke="#ec7b08" stroke-width="4.5"/><line x1="760" y1="390.05" x2="740" y2="410.05" stroke="#ec7b08" stroke-width="4.5"/><svg x="0" y="calc(1.5em * 0)" style="overflow: visible;"><text transform="translate(750,444)" text-anchor="middle" style="font-family: arial; font-size: 16px; line-height: 1.5em;"><tspan x="0" dy="0.71em">Claim Valid?</tspan></text></svg></g><g id="elem-task-3" data-kie-bpmn-node-id="elem-task-3" bpmn2nodeid="elem-task-3"><g><rect id="elem-task-3?shapeType=BACKGROUND" x="880.75" y="140.75" stroke-width="1.5" width="118.5" height="98.6" fill="rgba(255, 255, 255, 0.9)" stroke="rgba(0, 0, 0, 1)" stroke-linejoin="round" rx="3" ry="3"/></g><rect id="elem-task-3?shapeType=BORDER&amp;renderType=STROKE" x="880.75" y="140.75" stroke-width="0" width="118.5" height="98.6" fill="transparent" stroke="rgba(0, 0, 0, 1)" stroke-linejoin="round" rx="3" ry="3"/><g transform="translate(883.75, 143.75)"><svg version="1.0" xmlns="http://www.w3.org/2000/svg" width="25" height="25.650557620817843" viewBox="0 0 269 276" preserveAspectRatio="xMidYMid meet"><g transform="translate(0, 276) scale(0.1, -0.1)" stroke="black" stroke-width="25"><path d="M1310 2724 c-160 -26 -279 -82 -372 -176 -76 -77 -118 -153 -142&#10;        -255 -44 -196 6 -453 121 -614 18 -26 33 -51 33 -56 0 -24 -44 -45 -116 -58&#10;        -319 -57 -613 -271 -777 -566 l-37 -66 2 -414 3 -414 23 -3 c16 -3 22 -10 22&#10;        -28 l0 -24 1258 0 1257 0 18 43 c15 38 17 84 17 437 l0 394 -32 85 c-62 165&#10;        -212 341 -374 438 -82 49 -222 101 -324 118 -84 15 -130 34 -130 55 0 4 21 42&#10;        48 86 72 120 101 217 128 430 8 58 -22 197 -57 270 -55 112 -149 207 -250 252&#10;        -114 50 -247 78 -319 66z m416 -614 c75 -7 134 -16 141 -23 10 -10 10 -27 -1&#10;        -82 -7 -39 -17 -79 -21 -90 -26 -71 -72 -149 -120 -204 -62 -70 -62 -63 2&#10;        -132 l33 -35 -2 -175 -3 -174 -400 0 -400 0 -3 173 -2 173 40 46 c22 25 40 52&#10;        40 60 0 7 -17 32 -39 56 -43 47 -101 136 -119 182 -21 54 -44 177 -36 185 5 5&#10;        27 2 49 -6 60 -22 273 -11 335 18 75 36 274 46 506 28z m194 -600 c275 -54&#10;        533 -270 626 -527 27 -74 30 -103 12 -104 -10 0 -10 -2 0 -6 9 -4 12 -86 12&#10;        -364 l0 -359 -229 0 -230 0 -1 220 c0 121 -3 227 -6 235 -7 17 -30 20 -39 5&#10;        -3 -6 -6 -97 -5 -203 0 -106 -3 -207 -6 -225 l-7 -32 -736 2 c-580 2 -736 6&#10;        -737 16 -1 6 -2 109 -3 227 -1 186 -3 216 -17 222 -8 3 -19 2 -24 -3 -5 -5&#10;        -10 -110 -12 -234 l-3 -225 -223 -3 -222 -2 0 387 0 388 39 67 c105 180 259&#10;        327 446 427 79 43 219 89 280 93 48 3 50 2 56 -27 4 -16 7 -98 8 -181 1 -129&#10;        3 -153 17 -158 20 -8 842 -8 872 0 22 6 22 8 22 188 0 101 3 186 6 189 4 4 16&#10;        5 28 2 12 -2 46 -9 76 -15z"/></g></svg></g><svg x="0" y="calc(1.5em * 0)" style="overflow: visible;"><text transform="translate(940,190)" text-anchor="middle" style="font-family: arial; font-size: 16px; line-height: 1.5em;"><tspan x="0" dy="-1.145em">Provide</tspan><tspan x="0" dy="1.5em">Additional</tspan><tspan x="0" dy="1.5em">Info</tspan></text></svg></g><g id="elem-task-4" data-kie-bpmn-node-id="elem-task-4" bpmn2nodeid="elem-task-4"><g><rect id="elem-task-4?shapeType=BACKGROUND" x="880.75" y="540.75" stroke-width="1.5" width="118.5" height="98.6" fill="rgba(255, 255, 255, 0.9)" stroke="rgba(0, 0, 0, 1)" stroke-linejoin="round" rx="3" ry="3"/></g><rect id="elem-task-4?shapeType=BORDER&amp;renderType=STROKE" x="880.75" y="540.75" stroke-width="0" width="118.5" height="98.6" fill="transparent" stroke="rgba(0, 0, 0, 1)" stroke-linejoin="round" rx="3" ry="3"/><g transform="translate(883.75, 543.75)"><svg version="1.0" xmlns="http://www.w3.org/2000/svg" width="25" height="25.650557620817843" viewBox="0 0 269 276" preserveAspectRatio="xMidYMid meet"><g transform="translate(0, 276) scale(0.1, -0.1)" stroke="black" stroke-width="25"><path d="M1310 2724 c-160 -26 -279 -82 -372 -176 -76 -77 -118 -153 -142&#10;        -255 -44 -196 6 -453 121 -614 18 -26 33 -51 33 -56 0 -24 -44 -45 -116 -58&#10;        -319 -57 -613 -271 -777 -566 l-37 -66 2 -414 3 -414 23 -3 c16 -3 22 -10 22&#10;        -28 l0 -24 1258 0 1257 0 18 43 c15 38 17 84 17 437 l0 394 -32 85 c-62 165&#10;        -212 341 -374 438 -82 49 -222 101 -324 118 -84 15 -130 34 -130 55 0 4 21 42&#10;        48 86 72 120 101 217 128 430 8 58 -22 197 -57 270 -55 112 -149 207 -250 252&#10;        -114 50 -247 78 -319 66z m416 -614 c75 -7 134 -16 141 -23 10 -10 10 -27 -1&#10;        -82 -7 -39 -17 -79 -21 -90 -26 -71 -72 -149 -120 -204 -62 -70 -62 -63 2&#10;        -132 l33 -35 -2 -175 -3 -174 -400 0 -400 0 -3 173 -2 173 40 46 c22 25 40 52&#10;        40 60 0 7 -17 32 -39 56 -43 47 -101 136 -119 182 -21 54 -44 177 -36 185 5 5&#10;        27 2 49 -6 60 -22 273 -11 335 18 75 36 274 46 506 28z m194 -600 c275 -54&#10;        533 -270 626 -527 27 -74 30 -103 12 -104 -10 0 -10 -2 0 -6 9 -4 12 -86 12&#10;        -364 l0 -359 -229 0 -230 0 -1 220 c0 121 -3 227 -6 235 -7 17 -30 20 -39 5&#10;        -3 -6 -6 -97 -5 -203 0 -106 -3 -207 -6 -225 l-7 -32 -736 2 c-580 2 -736 6&#10;        -737 16 -1 6 -2 109 -3 227 -1 186 -3 216 -17 222 -8 3 -19 2 -24 -3 -5 -5&#10;        -10 -110 -12 -234 l-3 -225 -223 -3 -222 -2 0 387 0 388 39 67 c105 180 259&#10;        327 446 427 79 43 219 89 280 93 48 3 50 2 56 -27 4 -16 7 -98 8 -181 1 -129&#10;        3 -153 17 -158 20 -8 842 -8 872 0 22 6 22 8 22 188 0 101 3 186 6 189 4 4 16&#10;        5 28 2 12 -2 46 -9 76 -15z"/></g></svg></g><svg x="0" y="calc(1.5em * 0)" style="overflow: visible;"><text transform="translate(940,590)" text-anchor="middle" style="font-family: arial; font-size: 16px; line-height: 1.5em;"><tspan x="0" dy="0.355em">Review Claim</tspan></text></svg></g><g id="elem-gateway-2" data-kie-bpmn-node-id="elem-gateway-2" bpmn2nodeid="elem-gateway-2"><g><rect id="elem-gateway-2?shapeType=BACKGROUND" x="1068.75" y="548.75" transform="rotate(45,1110,580.05)" stroke-width="1.5" width="70.35714285714286" height="56.142857142857146" fill="#fef5ea" stroke="#ec7b08" stroke-linejoin="round" rx="5" ry="5"/></g><rect id="elem-gateway-2?shapeType=BORDER&amp;renderType=STROKE" x="1068.75" y="548.75" transform="rotate(45,1110,580.05)" stroke-width="1.5" width="70.35714285714286" height="56.142857142857146" fill="transparent" stroke="#ec7b08" stroke-linejoin="round" rx="5" ry="5"/><line x1="1100" y1="570.05" x2="1120" y2="590.05" stroke="#ec7b08" stroke-width="4.5"/><line x1="1120" y1="570.05" x2="1100" y2="590.05" stroke="#ec7b08" stroke-width="4.5"/><svg x="0" y="calc(1.5em * 0)" style="overflow: visible;"><text transform="translate(1110,624)" text-anchor="middle" style="font-family: arial; font-size: 16px; line-height: 1.5em;"><tspan x="0" dy="0.71em">Claim</tspan><tspan x="0" dy="1.5em">Decision</tspan></text></svg></g><g id="elem-task-5" data-kie-bpmn-node-id="elem-task-5" bpmn2nodeid="elem-task-5"><g><rect id="elem-task-5?shapeType=BACKGROUND" x="1240.75" y="300.75" stroke-width="1.5" width="118.5" height="98.6" fill="rgba(255, 255, 255, 0.9)" stroke="rgba(0, 0, 0, 1)" stroke-linejoin="round" rx="3" ry="3"/></g><rect id="elem-task-5?shapeType=BORDER&amp;renderType=STROKE" x="1240.75" y="300.75" stroke-width="0" width="118.5" height="98.6" fill="transparent" stroke="rgba(0, 0, 0, 1)" stroke-linejoin="round" rx="3" ry="3"/><g transform="translate(1243.75, 303.75)"><svg xmlns="http://www.w3.org/2000/svg" width="30" height="29.4375" viewBox="0 0 320 314" preserveAspectRatio="xMidYMid meet"><g transform="translate(0, 314) scale(0.1, -0.1)" stroke="black" stroke-width="25"><path d="M1170 3086 c-54 -21 -109 -56 -114 -74 -3 -9 -8 -74 -12 -145 l-7&#10;-127 -56 -16 c-31 -9 -89 -34 -130 -56 -71 -38 -74 -39 -95 -21 -11 10 -59 52&#10;-106 93 -142 125 -123 115 -177 100 -62 -18 -133 -64 -165 -109 -20 -28 -48&#10;-114 -48 -146 0 -2 19 -26 42 -53 209 -237 189 -208 170 -251 -8 -20 -27 -70&#10;-42 -111 l-27 -75 -149 -12 c-82 -6 -150 -12 -151 -12 -2 -1 -16 -25 -33 -53&#10;-27 -47 -30 -62 -30 -137 0 -74 3 -89 27 -127 16 -24 35 -46 43 -50 8 -3 73&#10;-10 145 -15 72 -6 135 -12 141 -14 6 -2 15 -25 19 -51 3 -26 18 -64 31 -85 13&#10;-21 24 -47 24 -56 -1 -10 -24 -43 -51 -73 -28 -30 -76 -83 -106 -117 l-55 -62&#10;12 -53 c21 -99 104 -180 202 -199 50 -9 55 -7 158 83 l73 62 16 -24 c42 -66&#10;52 -70 159 -70 55 0 113 -3 129 -6 l30 -6 10 -141 10 -142 -46 -54 c-96 -112&#10;-92 -105 -85 -161 12 -93 114 -193 209 -204 50 -6 51 -6 115 50 36 31 87 74&#10;114 95 l48 39 47 -27 c75 -44 102 -57 171 -78 l65 -21 6 -64 c4 -36 7 -97 8&#10;-136 0 -39 6 -77 14 -86 17 -21 83 -55 139 -72 41 -12 54 -12 99 1 29 9 71 27&#10;95 41 l42 26 6 85 c14 195 16 202 45 212 14 5 64 27 110 48 l83 39 96 -80 95&#10;-79 51 6 c27 4 67 19 88 32 46 31 102 113 118 176 l13 48 -44 47 c-24 25 -46&#10;49 -49 52 -3 3 -20 22 -39 42 l-33 36 39 74 c22 40 48 101 58 134 l17 62 46 6&#10;c24 3 87 6 138 6 80 0 97 3 113 19 26 26 49 71 66 129 13 40 12 53 -2 102 -8&#10;30 -27 72 -42 92 -28 40 -24 39 -219 54 -48 4 -88 12 -96 20 -8 7 -19 37 -26&#10;66 -7 29 -30 83 -51 120 -21 36 -39 74 -39 84 0 15 31 53 142 180 17 19 17 26&#10;6 70 -23 91 -94 174 -175 204 -30 11 -60 20 -68 20 -8 0 -45 -27 -82 -59 l-69&#10;-59 -134 10 c-74 6 -136 11 -138 13 -1 1 -7 62 -12 135 -6 74 -15 139 -20 145&#10;-5 6 -28 20 -50 31 -22 10 -40 21 -40 24 0 3 29 37 65 75 38 41 65 79 65 91 0&#10;58 -34 126 -87 174 -48 44 -126 80 -172 80 -6 0 -55 -40 -108 -90 -54 -49&#10;-103 -90 -110 -90 -6 0 -38 11 -70 24 -32 13 -72 29 -90 36 -34 13 -34 9 -49&#10;208 -6 79 -8 84 -40 108 -67 52 -160 67 -234 40z m137 -42 c17 -3 42 -16 57&#10;-27 25 -21 27 -30 37 -152 6 -71 15 -137 20 -147 5 -9 30 -24 56 -34 27 -9 78&#10;-30 116 -46 37 -16 73 -26 80 -22 6 4 56 48 109 97 88 80 100 88 126 82 75&#10;-16 156 -99 167 -171 6 -38 4 -41 -67 -110 -68 -67 -77 -72 -127 -78 -52 -5&#10;-148 -47 -163 -70 -4 -6 -8 -38 -8 -71 0 -33 -3 -97 -7 -142 l-6 -82 -52 -16&#10;c-69 -20 -82 -19 -90 5 -4 13 3 32 25 58 31 39 32 49 7 100 -11 23 -68 62 -91&#10;62 -7 0 -31 -16 -53 -35 -23 -19 -48 -35 -56 -35 -37 0 -47 12 -47 55 0 57 -7&#10;73 -41 90 -73 38 -138 2 -147 -83 -4 -46 -7 -52 -35 -61 -41 -15 -39 -16 -96&#10;29 -28 22 -58 40 -67 40 -29 0 -71 -39 -88 -81 -18 -45 -20 -40 37 -112 27&#10;-33 28 -39 17 -72 -11 -34 -13 -35 -62 -35 -70 0 -88 -18 -88 -87 0 -79 10&#10;-93 70 -93 37 0 55 -5 70 -20 27 -27 26 -35 -19 -91 -35 -44 -38 -53 -31 -81&#10;15 -52 38 -77 76 -84 30 -6 43 -2 80 25 74 52 96 39 68 -42 -10 -29 -23 -57&#10;-28 -63 -6 -7 -74 -17 -150 -23 -77 -7 -143 -14 -148 -17 -26 -17 -58 -95 -64&#10;-161 l-7 -72 -83 -70 c-70 -60 -89 -71 -120 -71 -66 0 -137 62 -163 142 -15&#10;46 -18 41 112 183 53 58 97 113 97 122 0 8 -13 38 -30 64 -16 27 -36 76 -43&#10;109 -8 34 -16 63 -19 65 -7 7 -178 25 -236 25 -47 0 -58 4 -83 31 -27 29 -29&#10;37 -29 109 0 79 18 133 48 145 7 2 76 8 153 11 80 4 143 12 148 18 5 6 17 38&#10;26 70 10 33 31 91 47 129 l30 70 -29 37 c-15 21 -68 83 -116 138 l-88 100 11&#10;44 c6 24 19 52 28 63 28 33 84 72 125 85 l38 12 95 -89 c173 -159 158 -154&#10;259 -93 33 20 89 44 125 55 98 28 96 25 105 186 l7 141 51 24 c52 24 98 29&#10;154 18z m709 -680 c16 -10 31 -19 33 -21 3 -2 10 -72 15 -156 l11 -152 45 -14&#10;c25 -8 78 -27 118 -43 41 -15 78 -28 83 -28 8 0 80 61 206 173 22 19 24 19 66&#10;3 57 -21 100 -65 132 -131 14 -30 25 -56 25 -59 0 -3 -38 -49 -85 -101 -47&#10;-53 -85 -103 -85 -111 0 -8 20 -50 44 -92 25 -42 54 -110 65 -151 12 -41 25&#10;-79 29 -83 5 -5 69 -14 143 -19 155 -12 172 -20 201 -94 19 -47 19 -53 4 -101&#10;-9 -29 -26 -63 -37 -78 -18 -23 -27 -26 -87 -27 -98 -1 -210 -13 -222 -25 -5&#10;-5 -20 -43 -32 -84 -12 -41 -39 -103 -60 -138 -21 -34 -38 -72 -38 -83 0 -11&#10;26 -48 57 -82 114 -123 105 -107 87 -160 -22 -65 -91 -133 -144 -142 -39 -7&#10;-43 -5 -136 74 -52 45 -102 81 -110 81 -8 0 -38 -12 -67 -27 -29 -15 -86 -41&#10;-127 -58 l-75 -30 -10 -143 c-9 -135 -11 -144 -35 -163 -59 -45 -144 -49 -224&#10;-8 -36 17 -46 28 -47 48 -1 14 -4 80 -8 146 l-6 120 -90 31 c-49 18 -122 50&#10;-162 73 -40 22 -79 41 -88 41 -8 0 -65 -43 -126 -96 -107 -92 -112 -96 -147&#10;-89 -67 13 -144 90 -157 157 -7 34 -3 40 105 163 61 70 109 132 107 139 -84&#10;217 -93 237 -112 241 -11 3 -81 9 -154 13 l-135 7 -20 34 c-26 44 -27 162 -3&#10;208 20 37 25 38 200 53 65 5 122 12 127 15 4 3 16 29 25 58 10 28 33 87 52&#10;131 l34 79 -43 51 c-23 28 -61 71 -84 96 -87 93 -106 122 -100 155 13 64 85&#10;139 158 165 l37 14 86 -80 c181 -165 186 -168 210 -145 27 24 132 73 187 87&#10;102 26 98 20 99 137 0 56 4 125 7 152 7 47 10 51 52 73 37 20 56 23 111 19 40&#10;-2 77 -11 95 -23z m-742 -50 c12 -5 16 -20 16 -60 0 -62 16 -78 86 -90 38 -6&#10;45 -3 82 30 36 33 43 36 62 24 36 -22 37 -55 1 -92 -35 -37 -37 -47 -15 -81&#10;19 -28 13 -40 -34 -67 l-29 -18 -122 111 -121 110 0 58 c0 73 22 95 74 75z&#10;m-254 -133 l35 -30 -40 -36 -40 -37 -32 38 c-38 43 -42 77 -11 98 24 17 33 13&#10;88 -33z m1308 -162 c-2 -6 -7 -10 -11 -10 -4 1 -14 1 -22 1 -8 0 -15 5 -15 10&#10;0 6 12 10 26 10 14 0 24 -5 22 -11z m-1408 -98 c0 -4 50 -65 111 -135 123&#10;-141 131 -163 59 -158 -35 2 -52 -3 -86 -28 -46 -33 -63 -37 -82 -18 -21 21&#10;-13 53 23 95 41 48 42 56 15 117 -19 45 -20 46 -64 46 -66 0 -76 6 -76 51 l0&#10;39 50 0 c28 0 50 -4 50 -9z m205 -1071 c7 -31 1 -50 -16 -50 -5 0 -9 18 -9 40&#10;0 47 16 53 25 10z"/><path d="M1846 1691 c-10 -11 -23 -43 -30 -72 -10 -46 -16 -56 -48 -73 l-37&#10;-19 -49 42 c-29 24 -60 41 -75 41 -34 0 -73 -34 -87 -76 -10 -29 -9 -39 4 -57&#10;65 -89 68 -96 59 -124 -8 -23 -16 -29 -44 -31 -87 -6 -95 -10 -108 -51 -13&#10;-45 -1 -118 21 -132 7 -5 32 -9 56 -9 42 0 82 -25 82 -51 0 -7 -18 -31 -40&#10;-55 -22 -24 -40 -52 -40 -61 0 -32 40 -84 76 -99 38 -16 41 -15 96 29 l37 29&#10;45 -17 c44 -17 45 -18 52 -71 7 -56 21 -76 67 -93 22 -9 35 -7 60 5 41 21 47&#10;31 47 77 0 52 13 73 52 81 26 5 39 1 70 -25 35 -28 42 -30 71 -20 77 27 99 90&#10;53 157 l-24 35 19 40 c19 38 21 39 69 39 38 0 54 5 69 22 33 34 37 81 11 122&#10;-21 35 -32 39 -108 48 -17 2 -29 15 -44 50 l-20 48 26 34 c35 47 35 94 -2 129&#10;-38 36 -79 35 -127 -3 -21 -16 -48 -30 -61 -30 -31 0 -54 36 -54 83 0 28 -6&#10;44 -22 58 -31 25 -99 25 -122 0z m98 -81 c9 -70 14 -79 51 -94 66 -28 70 -28&#10;119 10 84 64 131 20 66 -61 -16 -21 -30 -39 -30 -40 0 -1 16 -37 35 -79 l34&#10;-76 55 0 c46 0 57 -4 67 -21 8 -16 8 -28 0 -45 -9 -21 -17 -24 -66 -24 l-56 0&#10;-30 -66 c-31 -70 -31 -90 1 -119 29 -27 26 -69 -7 -84 -24 -11 -29 -9 -59 20&#10;-28 27 -37 31 -68 25 -20 -4 -51 -13 -71 -22 -28 -11 -35 -20 -35 -42 0 -15&#10;-3 -44 -6 -65 -6 -33 -10 -37 -35 -37 -34 0 -49 23 -49 77 0 49 -4 53 -70 81&#10;-30 13 -60 26 -66 28 -6 3 -33 -13 -61 -36 l-51 -40 -26 21 c-14 11 -26 25&#10;-26 31 0 6 18 30 40 54 46 50 48 67 19 124 -18 35 -26 40 -54 40 -72 0 -109&#10;35 -85 80 9 16 21 20 65 20 54 0 55 1 71 38 31 75 30 88 -15 145 -46 61 -47&#10;64 -24 89 23 26 36 23 88 -22 25 -22 53 -40 60 -40 26 0 123 49 129 66 3 8 6&#10;29 6 45 0 46 17 69 49 69 27 0 29 -3 35 -50z"/></g></svg></g><svg x="0" y="calc(1.5em * 0)" style="overflow: visible;"><text transform="translate(1300,350)" text-anchor="middle" style="font-family: arial; font-size: 16px; line-height: 1.5em;"><tspan x="0" dy="-0.395em">Process</tspan><tspan x="0" dy="1.5em">Payment</tspan></text></svg></g><g id="elem-task-6" data-kie-bpmn-node-id="elem-task-6" bpmn2nodeid="elem-task-6"><g><rect id="elem-task-6?shapeType=BACKGROUND" x="1240.75" y="400.75" stroke-width="1.5" width="118.5" height="98.6" fill="rgba(255, 255, 255, 0.9)" stroke="rgba(0, 0, 0, 1)" stroke-linejoin="round" rx="3" ry="3"/></g><rect id="elem-task-6?shapeType=BORDER&amp;renderType=STROKE" x="1240.75" y="400.75" stroke-width="0" width="118.5" height="98.6" fill="transparent" stroke="rgba(0, 0, 0, 1)" stroke-linejoin="round" rx="3" ry="3"/><g transform="translate(1243.75, 403.75)"><svg xmlns="http://www.w3.org/2000/svg" width="30" height="29.4375" viewBox="0 0 320 314" preserveAspectRatio="xMidYMid meet"><g transform="translate(0, 314) scale(0.1, -0.1)" stroke="black" stroke-width="25"><path d="M1170 3086 c-54 -21 -109 -56 -114 -74 -3 -9 -8 -74 -12 -145 l-7&#10;-127 -56 -16 c-31 -9 -89 -34 -130 -56 -71 -38 -74 -39 -95 -21 -11 10 -59 52&#10;-106 93 -142 125 -123 115 -177 100 -62 -18 -133 -64 -165 -109 -20 -28 -48&#10;-114 -48 -146 0 -2 19 -26 42 -53 209 -237 189 -208 170 -251 -8 -20 -27 -70&#10;-42 -111 l-27 -75 -149 -12 c-82 -6 -150 -12 -151 -12 -2 -1 -16 -25 -33 -53&#10;-27 -47 -30 -62 -30 -137 0 -74 3 -89 27 -127 16 -24 35 -46 43 -50 8 -3 73&#10;-10 145 -15 72 -6 135 -12 141 -14 6 -2 15 -25 19 -51 3 -26 18 -64 31 -85 13&#10;-21 24 -47 24 -56 -1 -10 -24 -43 -51 -73 -28 -30 -76 -83 -106 -117 l-55 -62&#10;12 -53 c21 -99 104 -180 202 -199 50 -9 55 -7 158 83 l73 62 16 -24 c42 -66&#10;52 -70 159 -70 55 0 113 -3 129 -6 l30 -6 10 -141 10 -142 -46 -54 c-96 -112&#10;-92 -105 -85 -161 12 -93 114 -193 209 -204 50 -6 51 -6 115 50 36 31 87 74&#10;114 95 l48 39 47 -27 c75 -44 102 -57 171 -78 l65 -21 6 -64 c4 -36 7 -97 8&#10;-136 0 -39 6 -77 14 -86 17 -21 83 -55 139 -72 41 -12 54 -12 99 1 29 9 71 27&#10;95 41 l42 26 6 85 c14 195 16 202 45 212 14 5 64 27 110 48 l83 39 96 -80 95&#10;-79 51 6 c27 4 67 19 88 32 46 31 102 113 118 176 l13 48 -44 47 c-24 25 -46&#10;49 -49 52 -3 3 -20 22 -39 42 l-33 36 39 74 c22 40 48 101 58 134 l17 62 46 6&#10;c24 3 87 6 138 6 80 0 97 3 113 19 26 26 49 71 66 129 13 40 12 53 -2 102 -8&#10;30 -27 72 -42 92 -28 40 -24 39 -219 54 -48 4 -88 12 -96 20 -8 7 -19 37 -26&#10;66 -7 29 -30 83 -51 120 -21 36 -39 74 -39 84 0 15 31 53 142 180 17 19 17 26&#10;6 70 -23 91 -94 174 -175 204 -30 11 -60 20 -68 20 -8 0 -45 -27 -82 -59 l-69&#10;-59 -134 10 c-74 6 -136 11 -138 13 -1 1 -7 62 -12 135 -6 74 -15 139 -20 145&#10;-5 6 -28 20 -50 31 -22 10 -40 21 -40 24 0 3 29 37 65 75 38 41 65 79 65 91 0&#10;58 -34 126 -87 174 -48 44 -126 80 -172 80 -6 0 -55 -40 -108 -90 -54 -49&#10;-103 -90 -110 -90 -6 0 -38 11 -70 24 -32 13 -72 29 -90 36 -34 13 -34 9 -49&#10;208 -6 79 -8 84 -40 108 -67 52 -160 67 -234 40z m137 -42 c17 -3 42 -16 57&#10;-27 25 -21 27 -30 37 -152 6 -71 15 -137 20 -147 5 -9 30 -24 56 -34 27 -9 78&#10;-30 116 -46 37 -16 73 -26 80 -22 6 4 56 48 109 97 88 80 100 88 126 82 75&#10;-16 156 -99 167 -171 6 -38 4 -41 -67 -110 -68 -67 -77 -72 -127 -78 -52 -5&#10;-148 -47 -163 -70 -4 -6 -8 -38 -8 -71 0 -33 -3 -97 -7 -142 l-6 -82 -52 -16&#10;c-69 -20 -82 -19 -90 5 -4 13 3 32 25 58 31 39 32 49 7 100 -11 23 -68 62 -91&#10;62 -7 0 -31 -16 -53 -35 -23 -19 -48 -35 -56 -35 -37 0 -47 12 -47 55 0 57 -7&#10;73 -41 90 -73 38 -138 2 -147 -83 -4 -46 -7 -52 -35 -61 -41 -15 -39 -16 -96&#10;29 -28 22 -58 40 -67 40 -29 0 -71 -39 -88 -81 -18 -45 -20 -40 37 -112 27&#10;-33 28 -39 17 -72 -11 -34 -13 -35 -62 -35 -70 0 -88 -18 -88 -87 0 -79 10&#10;-93 70 -93 37 0 55 -5 70 -20 27 -27 26 -35 -19 -91 -35 -44 -38 -53 -31 -81&#10;15 -52 38 -77 76 -84 30 -6 43 -2 80 25 74 52 96 39 68 -42 -10 -29 -23 -57&#10;-28 -63 -6 -7 -74 -17 -150 -23 -77 -7 -143 -14 -148 -17 -26 -17 -58 -95 -64&#10;-161 l-7 -72 -83 -70 c-70 -60 -89 -71 -120 -71 -66 0 -137 62 -163 142 -15&#10;46 -18 41 112 183 53 58 97 113 97 122 0 8 -13 38 -30 64 -16 27 -36 76 -43&#10;109 -8 34 -16 63 -19 65 -7 7 -178 25 -236 25 -47 0 -58 4 -83 31 -27 29 -29&#10;37 -29 109 0 79 18 133 48 145 7 2 76 8 153 11 80 4 143 12 148 18 5 6 17 38&#10;26 70 10 33 31 91 47 129 l30 70 -29 37 c-15 21 -68 83 -116 138 l-88 100 11&#10;44 c6 24 19 52 28 63 28 33 84 72 125 85 l38 12 95 -89 c173 -159 158 -154&#10;259 -93 33 20 89 44 125 55 98 28 96 25 105 186 l7 141 51 24 c52 24 98 29&#10;154 18z m709 -680 c16 -10 31 -19 33 -21 3 -2 10 -72 15 -156 l11 -152 45 -14&#10;c25 -8 78 -27 118 -43 41 -15 78 -28 83 -28 8 0 80 61 206 173 22 19 24 19 66&#10;3 57 -21 100 -65 132 -131 14 -30 25 -56 25 -59 0 -3 -38 -49 -85 -101 -47&#10;-53 -85 -103 -85 -111 0 -8 20 -50 44 -92 25 -42 54 -110 65 -151 12 -41 25&#10;-79 29 -83 5 -5 69 -14 143 -19 155 -12 172 -20 201 -94 19 -47 19 -53 4 -101&#10;-9 -29 -26 -63 -37 -78 -18 -23 -27 -26 -87 -27 -98 -1 -210 -13 -222 -25 -5&#10;-5 -20 -43 -32 -84 -12 -41 -39 -103 -60 -138 -21 -34 -38 -72 -38 -83 0 -11&#10;26 -48 57 -82 114 -123 105 -107 87 -160 -22 -65 -91 -133 -144 -142 -39 -7&#10;-43 -5 -136 74 -52 45 -102 81 -110 81 -8 0 -38 -12 -67 -27 -29 -15 -86 -41&#10;-127 -58 l-75 -30 -10 -143 c-9 -135 -11 -144 -35 -163 -59 -45 -144 -49 -224&#10;-8 -36 17 -46 28 -47 48 -1 14 -4 80 -8 146 l-6 120 -90 31 c-49 18 -122 50&#10;-162 73 -40 22 -79 41 -88 41 -8 0 -65 -43 -126 -96 -107 -92 -112 -96 -147&#10;-89 -67 13 -144 90 -157 157 -7 34 -3 40 105 163 61 70 109 132 107 139 -84&#10;217 -93 237 -112 241 -11 3 -81 9 -154 13 l-135 7 -20 34 c-26 44 -27 162 -3&#10;208 20 37 25 38 200 53 65 5 122 12 127 15 4 3 16 29 25 58 10 28 33 87 52&#10;131 l34 79 -43 51 c-23 28 -61 71 -84 96 -87 93 -106 122 -100 155 13 64 85&#10;139 158 165 l37 14 86 -80 c181 -165 186 -168 210 -145 27 24 132 73 187 87&#10;102 26 98 20 99 137 0 56 4 125 7 152 7 47 10 51 52 73 37 20 56 23 111 19 40&#10;-2 77 -11 95 -23z m-742 -50 c12 -5 16 -20 16 -60 0 -62 16 -78 86 -90 38 -6&#10;45 -3 82 30 36 33 43 36 62 24 36 -22 37 -55 1 -92 -35 -37 -37 -47 -15 -81&#10;19 -28 13 -40 -34 -67 l-29 -18 -122 111 -121 110 0 58 c0 73 22 95 74 75z&#10;m-254 -133 l35 -30 -40 -36 -40 -37 -32 38 c-38 43 -42 77 -11 98 24 17 33 13&#10;88 -33z m1308 -162 c-2 -6 -7 -10 -11 -10 -4 1 -14 1 -22 1 -8 0 -15 5 -15 10&#10;0 6 12 10 26 10 14 0 24 -5 22 -11z m-1408 -98 c0 -4 50 -65 111 -135 123&#10;-141 131 -163 59 -158 -35 2 -52 -3 -86 -28 -46 -33 -63 -37 -82 -18 -21 21&#10;-13 53 23 95 41 48 42 56 15 117 -19 45 -20 46 -64 46 -66 0 -76 6 -76 51 l0&#10;39 50 0 c28 0 50 -4 50 -9z m205 -1071 c7 -31 1 -50 -16 -50 -5 0 -9 18 -9 40&#10;0 47 16 53 25 10z"/><path d="M1846 1691 c-10 -11 -23 -43 -30 -72 -10 -46 -16 -56 -48 -73 l-37&#10;-19 -49 42 c-29 24 -60 41 -75 41 -34 0 -73 -34 -87 -76 -10 -29 -9 -39 4 -57&#10;65 -89 68 -96 59 -124 -8 -23 -16 -29 -44 -31 -87 -6 -95 -10 -108 -51 -13&#10;-45 -1 -118 21 -132 7 -5 32 -9 56 -9 42 0 82 -25 82 -51 0 -7 -18 -31 -40&#10;-55 -22 -24 -40 -52 -40 -61 0 -32 40 -84 76 -99 38 -16 41 -15 96 29 l37 29&#10;45 -17 c44 -17 45 -18 52 -71 7 -56 21 -76 67 -93 22 -9 35 -7 60 5 41 21 47&#10;31 47 77 0 52 13 73 52 81 26 5 39 1 70 -25 35 -28 42 -30 71 -20 77 27 99 90&#10;53 157 l-24 35 19 40 c19 38 21 39 69 39 38 0 54 5 69 22 33 34 37 81 11 122&#10;-21 35 -32 39 -108 48 -17 2 -29 15 -44 50 l-20 48 26 34 c35 47 35 94 -2 129&#10;-38 36 -79 35 -127 -3 -21 -16 -48 -30 -61 -30 -31 0 -54 36 -54 83 0 28 -6&#10;44 -22 58 -31 25 -99 25 -122 0z m98 -81 c9 -70 14 -79 51 -94 66 -28 70 -28&#10;119 10 84 64 131 20 66 -61 -16 -21 -30 -39 -30 -40 0 -1 16 -37 35 -79 l34&#10;-76 55 0 c46 0 57 -4 67 -21 8 -16 8 -28 0 -45 -9 -21 -17 -24 -66 -24 l-56 0&#10;-30 -66 c-31 -70 -31 -90 1 -119 29 -27 26 -69 -7 -84 -24 -11 -29 -9 -59 20&#10;-28 27 -37 31 -68 25 -20 -4 -51 -13 -71 -22 -28 -11 -35 -20 -35 -42 0 -15&#10;-3 -44 -6 -65 -6 -33 -10 -37 -35 -37 -34 0 -49 23 -49 77 0 49 -4 53 -70 81&#10;-30 13 -60 26 -66 28 -6 3 -33 -13 -61 -36 l-51 -40 -26 21 c-14 11 -26 25&#10;-26 31 0 6 18 30 40 54 46 50 48 67 19 124 -18 35 -26 40 -54 40 -72 0 -109&#10;35 -85 80 9 16 21 20 65 20 54 0 55 1 71 38 31 75 30 88 -15 145 -46 61 -47&#10;64 -24 89 23 26 36 23 88 -22 25 -22 53 -40 60 -40 26 0 123 49 129 66 3 8 6&#10;29 6 45 0 46 17 69 49 69 27 0 29 -3 35 -50z"/></g></svg></g><svg x="0" y="calc(1.5em * 0)" style="overflow: visible;"><text transform="translate(1300,450)" text-anchor="middle" style="font-family: arial; font-size: 16px; line-height: 1.5em;"><tspan x="0" dy="-0.395em">Send Denial</tspan><tspan x="0" dy="1.5em">Notice</tspan></text></svg></g><g id="elem-end-1" data-kie-bpmn-node-id="elem-end-1" bpmn2nodeid="elem-end-1"><g><circle id="elem-end-1?shapeType=BACKGROUND" cx="1450" cy="350.05" stroke-width="6" width="54" height="54.1" fill="#fce7e7" stroke="#a30000" stroke-linejoin="round" r="27"/></g><circle id="elem-end-1?shapeType=BORDER&amp;renderType=STROKE" cx="1450" cy="350.05" stroke-width="6" width="54" height="54.1" fill="transparent" stroke="#a30000" stroke-linejoin="round" r="27"/><svg x="0" y="calc(1.5em * 0)" style="overflow: visible;"><text transform="translate(1450,384)" text-anchor="middle" style="font-family: arial; font-size: 16px; line-height: 1.5em;"><tspan x="0" dy="0.71em">Claim</tspan><tspan x="0" dy="1.5em">Approved</tspan></text></svg></g><g id="elem-end-2" data-kie-bpmn-node-id="elem-end-2" bpmn2nodeid="elem-end-2"><g><circle id="elem-end-2?shapeType=BACKGROUND" cx="1450" cy="450.05" stroke-width="6" width="54" height="54.1" fill="#fce7e7" stroke="#a30000" stroke-linejoin="round" r="27"/></g><circle id="elem-end-2?shapeType=BORDER&amp;renderType=STROKE" cx="1450" cy="450.05" stroke-width="6" width="54" height="54.1" fill="transparent" stroke="#a30000" stroke-linejoin="round" r="27"/><svg x="0" y="calc(1.5em * 0)" style="overflow: visible;"><text transform="translate(1450,484)" text-anchor="middle" style="font-family: arial; font-size: 16px; line-height: 1.5em;"><tspan x="0" dy="0.71em">Claim</tspan><tspan x="0" dy="1.5em">Denied</tspan></text></svg></g><g id="_98B5A9F0-41C9-41EB-96E8-5E7401477A03" data-kie-bpmn-node-id="_98B5A9F0-41C9-41EB-96E8-5E7401477A03" bpmn2nodeid="_98B5A9F0-41C9-41EB-96E8-5E7401477A03"><g><rect id="_98B5A9F0-41C9-41EB-96E8-5E7401477A03?shapeType=BACKGROUND" x="648.75" y="568.75" transform="rotate(45,670,590.05)" stroke-width="1.5" width="41.78571428571429" height="41.85714285714286" fill="#fef5ea" stroke="#ec7b08" stroke-linejoin="round" rx="5" ry="5"/></g><rect id="_98B5A9F0-41C9-41EB-96E8-5E7401477A03?shapeType=BORDER&amp;renderType=STROKE" x="648.75" y="568.75" transform="rotate(45,670,590.05)" stroke-width="1.5" width="41.78571428571429" height="41.85714285714286" fill="transparent" stroke="#ec7b08" stroke-linejoin="round" rx="5" ry="5"/><line x1="660" y1="580.05" x2="680" y2="600.05" stroke="#ec7b08" stroke-width="4.5"/><line x1="680" y1="580.05" x2="660" y2="600.05" stroke="#ec7b08" stroke-width="4.5"/><svg x="0" y="calc(1.5em * 0)" style="overflow: visible;"><text transform="translate(670,624)" text-anchor="middle" style="font-family: arial; font-size: 16px; line-height: 1.5em;"><tspan x="0" dy="0.71em">NiceDecisionPointLayout</tspan></text></svg></g></g></svg>